<svg width="100%" height="100%" viewBox="0 0 1440 800" xmlns="http://www.w3.org/2000/svg" preserveAspectRatio="none">
  <defs>
    <linearGradient id="grad1" x1="0%" y1="0%" x2="100%" y2="100%">
      <stop offset="0%" style="stop-color:#004d4d; stop-opacity:1" />
      <stop offset="100%" style="stop-color:#66b2b2; stop-opacity:0.3" />
    </linearGradient>
  </defs>
  <path fill="none" stroke="url(#grad1)" stroke-width="3"
    d="M0,200 C150,300 300,100 450,250 C600,400 750,200 900,300 C1050,400 1200,250 1350,350 C1500,450 1650,300 1800,400" />
  <path fill="none" stroke="rgba(0, 166, 166, 0.5)" stroke-width="2" stroke-dasharray="10,10"
    d="M0,300 C150,400 300,200 450,350 C600,500 750,300 900,400 C1050,500 1200,350 1350,450 C1500,550 1650,400 1800,500" />
  <path fill="none" stroke="rgba(255, 255, 255, 0.2)" stroke-width="1"
    d="M0,400 C150,500 300,300 450,450 C600,600 750,400 900,500 C1050,600 1200,450 1350,550 C1500,650 1650,500 1800,600" />
</svg>
